<svg width="1077" height="784" viewBox="0 0 1077 784" fill="none" xmlns="http://www.w3.org/2000/svg">
<rect y="138.392" width="534.706" height="668.383" rx="25" transform="rotate(-15 0 138.392)" fill="#0A1930"/>
<rect x="26.329" y="157.385" width="493.389" height="617.987" rx="17.5" transform="rotate(-15 26.329 157.385)" fill="#0A1930" stroke="white" stroke-width="5"/>
<path d="M348.808 460.934C343.291 472.804 334.255 482.687 322.926 489.242C311.598 495.798 298.526 498.707 285.487 497.575C272.447 496.443 260.072 491.325 250.043 482.916C240.013 474.507 232.815 463.214 229.426 450.572C221.874 422.389 237.07 398.876 257.329 367.521C275 340.159 296.539 306.82 310.15 259.239C345.728 293.64 381.05 311.743 410.035 326.604C443.258 343.629 468.174 356.393 475.725 384.576C479.112 397.219 478.524 410.598 474.043 422.895C469.561 435.193 461.403 445.813 450.677 453.313C439.95 460.812 427.175 464.829 414.087 464.816C400.998 464.803 388.231 460.762 377.519 453.241C390.128 468.93 404.021 483.542 419.054 496.926C424.768 501.995 422.695 511.921 415.341 513.892L346.378 532.371C339.006 534.346 332.248 526.785 334.679 519.534C341.006 500.427 345.732 480.826 348.808 460.934V460.934Z" fill="white"/>
<rect x="560.505" width="534.706" height="668.383" rx="25" transform="rotate(15 560.505 0)" fill="#0A1930"/>
<rect x="573.81" y="29.6126" width="493.389" height="617.987" rx="17.5" transform="rotate(15 573.81 29.6126)" fill="#0A1930" stroke="white" stroke-width="5"/>
<path d="M700.343 267.746C734.229 276.826 754.465 311.09 745.57 344.286C754.465 311.09 789.122 291.534 823.008 300.614C856.895 309.694 877.131 343.958 868.236 377.154C854.83 427.186 800.513 431.548 712.106 493.218C711.134 493.895 710.025 494.351 708.857 494.555C707.69 494.759 706.492 494.706 705.348 494.399C704.203 494.093 703.139 493.54 702.23 492.779C701.321 492.019 700.589 491.069 700.085 489.997C654.357 392.386 609.499 361.45 622.905 311.418C631.8 278.222 666.457 258.666 700.343 267.746Z" fill="white"/>
</svg>
