<svg width="41" height="41" viewBox="0 0 41 41" fill="none" xmlns="http://www.w3.org/2000/svg">
<path d="M21.8921 20.8365L9.0249 22.9805C8.87696 23.0052 8.73814 23.0684 8.62239 23.1638C8.50663 23.2591 8.41802 23.3833 8.36548 23.5238L3.92894 35.4103C3.50527 36.5037 4.64815 37.5457 5.69706 37.0196L36.4471 21.6446C36.6596 21.5381 36.8383 21.3745 36.9632 21.1722C37.0881 20.9699 37.1542 20.7369 37.1542 20.4991C37.1542 20.2614 37.0881 20.0284 36.9632 19.8261C36.8383 19.6238 36.6596 19.4602 36.4471 19.3537L5.69706 3.97871C4.64815 3.45425 3.50527 4.49633 3.92894 5.58796L8.36719 17.4745C8.41973 17.615 8.50834 17.7392 8.62409 17.8345C8.73985 17.9299 8.87867 17.9931 9.0266 18.0178L21.8938 20.1618C21.974 20.1746 22.0471 20.2156 22.0999 20.2774C22.1526 20.3392 22.1816 20.4179 22.1816 20.4991C22.1816 20.5804 22.1526 20.659 22.0999 20.7209C22.0471 20.7827 21.974 20.8237 21.8938 20.8365H21.8921Z" fill="#F8F8F8"/>
</svg>
